<?xml version="1.0" encoding="UTF-8"?>
<svg width="100px" height="100px" viewBox="0 0 100 100" version="1.1" xmlns="http://www.w3.org/2000/svg" xmlns:xlink="http://www.w3.org/1999/xlink">
    <!-- Generator: sketchtool 53.2 (72643) - https://sketchapp.com -->
    <title>98168CBA-AF97-4922-8F66-773495D164A7</title>
    <desc>Created with sketchtool.</desc>
    <defs>
        <radialGradient cx="50%" cy="50.0005472%" fx="50%" fy="50.0005472%" r="50%" id="radialGradient-1">
            <stop stop-color="#7C46E8" offset="0%"></stop>
            <stop stop-color="#9367F2" offset="100%"></stop>
        </radialGradient>
        <linearGradient x1="61.116826%" y1="42.6349938%" x2="20.8604138%" y2="69.3016615%" id="linearGradient-2">
            <stop stop-color="#9367F2" stop-opacity="0" offset="0%"></stop>
            <stop stop-color="#7746E8" offset="100%"></stop>
        </linearGradient>
        <path d="M49.9992375,56.0606061 C39.1202702,56.0606061 30.3030303,47.2433662 30.3030303,36.3643988 C30.3030303,25.4854315 39.1202702,16.6666667 49.9992375,16.6666667 C60.8782049,16.6666667 69.6969697,25.4854315 69.6969697,36.3643988 C69.6969697,47.2433662 60.8782049,56.0606061 49.9992375,56.0606061 Z" id="path-3"></path>
        <filter x="-22.8%" y="-12.7%" width="135.5%" height="135.5%" filterUnits="objectBoundingBox" id="filter-4">
            <feOffset dx="-2" dy="2" in="SourceAlpha" result="shadowOffsetOuter1"></feOffset>
            <feGaussianBlur stdDeviation="2" in="shadowOffsetOuter1" result="shadowBlurOuter1"></feGaussianBlur>
            <feColorMatrix values="0 0 0 0 0.250280971   0 0 0 0 0.20700259   0 0 0 0 0.422441123  0 0 0 0.3 0" type="matrix" in="shadowBlurOuter1"></feColorMatrix>
        </filter>
        <linearGradient x1="49.9932587%" y1="8.99417228%" x2="49.9932587%" y2="90.0363305%" id="linearGradient-5">
            <stop stop-color="#2D2A3A" offset="0%"></stop>
            <stop stop-color="#7C46E8" offset="100%"></stop>
        </linearGradient>
        <linearGradient x1="50.0002161%" y1="21.1764201%" x2="50.0002161%" y2="132.09516%" id="linearGradient-6">
            <stop stop-color="#9367F2" offset="0%"></stop>
            <stop stop-color="#7C46E8" offset="100%"></stop>
        </linearGradient>
        <linearGradient x1="32.9213867%" y1="44.0047856%" x2="49.9996809%" y2="132.09516%" id="linearGradient-7">
            <stop stop-color="#9367F2" offset="0%"></stop>
            <stop stop-color="#7C46E8" offset="100%"></stop>
        </linearGradient>
    </defs>
    <g id="Web" stroke="none" stroke-width="1" fill="none" fill-rule="evenodd">
        <g id="NOPGG_01_Guide" transform="translate(-1020.000000, -262.000000)">
            <g id="icon_logo" transform="translate(1020.000000, 262.000000)">
                <path d="M50,-0.000606060606 C22.3846154,-0.000606060606 0,22.3870862 0,49.9993939 L0,49.9993939 C0,77.6147786 22.3846154,99.9993939 50,99.9993939 L50,99.9993939 C77.6138462,99.9993939 100,77.6147786 100,49.9993939 L100,49.9993939 C100,22.3870862 77.6138462,-0.000606060606 50,-0.000606060606 Z" id="Fill-1" fill="url(#radialGradient-1)"></path>
                <path d="M50,100 C22.3846154,100 0,77.6138462 0,50 C0,22.3846154 22.3846154,0 50,0 C77.6138462,0 100,22.3846154 100,50 C100,77.6138462 77.6138462,100 50,100 Z" id="Fill-4" fill="url(#linearGradient-2)"></path>
                <g id="Fill-8">
                    <use fill="black" fill-opacity="1" filter="url(#filter-4)" xlink:href="#path-3"></use>
                    <use fill="#FFFFFF" fill-rule="evenodd" xlink:href="#path-3"></use>
                </g>
                <path d="M43.9393939,36.3652704 C43.9393939,39.7101236 46.6518787,42.4242424 49.998366,42.4242424 L49.998366,42.4242424 C53.3448532,42.4242424 56.058972,39.7101236 56.058972,36.3652704 L56.058972,36.3652704 C56.058972,33.0155151 53.3448532,30.3030303 49.998366,30.3030303 L49.998366,30.3030303 C46.6518787,30.3030303 43.9393939,33.0155151 43.9393939,36.3652704" id="Fill-11" fill="url(#linearGradient-5)"></path>
                <g id="Group-2" transform="translate(39.393939, 62.121212)">
                    <path d="M1.24344979e-14,12.1772727 C1.24344979e-14,5.4530303 4.51666667,4.52970994e-14 10.0909091,4.52970994e-14 C15.6651515,4.52970994e-14 20.1833333,5.4530303 20.1833333,12.1772727 C20.1833333,18.9015152 16.4863636,10.2424242 10.0909091,10.2424242 C4.17575758,10.2424242 1.24344979e-14,18.9015152 1.24344979e-14,12.1772727" id="Fill-14" fill="#26292F"></path>
                    <path d="M5.17424242,1.54909091 L5.17424242,3.4930303 C5.17424242,4.49606061 5.99393939,5.31727273 6.99848485,5.31727273 C8.00151515,5.31727273 8.82272727,4.49606061 8.82272727,3.4930303 L8.82272727,0.106666667 C7.51212121,0.306666667 6.27878788,0.803636364 5.17424242,1.54909091" id="Fill-22" fill="#FFFFFF"></path>
                    <path d="M13.185,5.31772727 C14.1880303,5.31772727 15.0092424,4.49651515 15.0092424,3.49348485 L15.0092424,1.54954545 C13.904697,0.804090909 12.6713636,0.305606061 11.3607576,0.107121212 L11.3607576,3.49348485 C11.3607576,4.49651515 12.1819697,5.31772727 13.185,5.31772727" id="Fill-24" fill="#FFFFFF"></path>
                </g>
                <path d="M1.83030303,63.9266667 C-2.63636364,68.7721212 5.03939394,73.2024242 7.4530303,81.9266667 L7.4530303,81.9266667 C9.38939394,88.9327273 13.4939394,98.9342424 20.5651515,98.9918182 L20.5651515,98.9918182 L20.8060606,98.9918182 C33.4090909,98.9054545 36.630303,84.2993939 30.580303,76.9024242 L30.580303,76.9024242 C25.7060606,70.9418182 13.9787879,62.1069697 6.47575758,62.1069697 L6.47575758,62.1069697 C4.60909091,62.1069697 3.0030303,62.6539394 1.83030303,63.9266667" id="Fill-16" fill="url(#linearGradient-6)"></path>
                <path d="M69.6230906,76.9166667 C63.5746058,84.3136364 66.7943028,98.919697 79.3988482,99.0060606 L79.3988482,99.0060606 L79.6397573,99.0060606 C86.7079391,98.9484848 90.8124846,88.9469697 92.7503634,81.9409091 L92.7503634,81.9409091 C95.1639997,73.2166667 102.838242,68.7863636 98.3730906,63.9409091 L98.3730906,63.9409091 C97.1988482,62.6681818 95.5943028,62.1212121 93.7276361,62.1212121 L93.7276361,62.1212121 C86.2246058,62.1212121 74.4973331,70.9560606 69.6230906,76.9166667" id="Fill-19" fill="url(#linearGradient-7)"></path>
            </g>
        </g>
    </g>
</svg>